HIERARCHY
ROOT Hips
{
	OFFSET 0.00000 0.00000 0.00000
	CHANNELS 6 Xposition Yposition Zposition Zrotation Yrotation Xrotation 
	JOINT LHipJoint
	{
		OFFSET 0 0 0
		CHANNELS 3 Zrotation Yrotation Xrotation
		JOINT LeftUpLeg
		{
			OFFSET 1.41496 -1.84582 0.78394
			CHANNELS 3 Zrotation Yrotation Xrotation
			JOINT LeftLeg
			{
				OFFSET 2.58040 -7.08960 0.00000
				CHANNELS 3 Zrotation Yrotation Xrotation
				JOINT LeftFoot
				{
					OFFSET 2.64719 -7.27309 0.00000
					CHANNELS 3 Zrotation Yrotation Xrotation
					JOINT LeftToeBase
					{
						OFFSET 0.20718 -0.56921 2.20259
						CHANNELS 3 Zrotation Yrotation Xrotation
						End Site
						{
							OFFSET 0.00000 -0.00000 1.14243
						}
					}
				}
			}
		}
	}
	JOINT RHipJoint
	{
		OFFSET 0 0 0
		CHANNELS 3 Zrotation Yrotation Xrotation
		JOINT RightUpLeg
		{
			OFFSET -1.40551 -1.84582 0.78394
			CHANNELS 3 Zrotation Yrotation Xrotation
			JOINT RightLeg
			{
				OFFSET -2.56572 -7.04926 0.00000
				CHANNELS 3 Zrotation Yrotation Xrotation
				JOINT RightFoot
				{
					OFFSET -2.57974 -7.08778 0.00000
					CHANNELS 3 Zrotation Yrotation Xrotation
					JOINT RightToeBase
					{
						OFFSET -0.26704 -0.73369 2.20815
						CHANNELS 3 Zrotation Yrotation Xrotation
						End Site
						{
							OFFSET -0.00000 -0.00000 1.16246
						}
					}
				}
			}
		}
	}
	JOINT LowerBack
	{
		OFFSET 0 0 0
		CHANNELS 3 Zrotation Yrotation Xrotation
		JOINT Spine
		{
			OFFSET -0.04690 2.05196 -0.07017
			CHANNELS 3 Zrotation Yrotation Xrotation
			JOINT Spine1
			{
				OFFSET 0.04085 2.05260 0.00800
				CHANNELS 3 Zrotation Yrotation Xrotation
				JOINT Neck
				{
					OFFSET 0 0 0
					CHANNELS 3 Zrotation Yrotation Xrotation
					JOINT Neck1
					{
						OFFSET -0.03582 1.80995 0.19301
						CHANNELS 3 Zrotation Yrotation Xrotation
						JOINT Head
						{
							OFFSET 0.00952 1.80195 -0.36389
							CHANNELS 3 Zrotation Yrotation Xrotation
							End Site
							{
								OFFSET 0.00392 1.85062 -0.14494
							}
						}
					}
				}
				JOINT LeftShoulder
				{
					OFFSET 0 0 0
					CHANNELS 3 Zrotation Yrotation Xrotation
					JOINT LeftArm
					{
						OFFSET 3.55224 1.39726 -0.13667
						CHANNELS 3 Zrotation Yrotation Xrotation
						JOINT LeftForeArm
						{
							OFFSET 5.14507 -0.00000 -0.00000
							CHANNELS 3 Zrotation Yrotation Xrotation
							JOINT LeftHand
							{
								OFFSET 3.50646 -0.00000 0.00000
								CHANNELS 3 Zrotation Yrotation Xrotation
								JOINT LeftFingerBase
								{
									OFFSET 0 0 0
									CHANNELS 3 Zrotation Yrotation Xrotation
									JOINT LeftHandIndex1
									{
										OFFSET 0.62997 -0.00000 0.00000
										CHANNELS 3 Zrotation Yrotation Xrotation
										End Site
										{
											OFFSET 0.50790 -0.00000 0.00000
										}
									}
								}
								JOINT LThumb
								{
									OFFSET 0 0 0
									CHANNELS 3 Zrotation Yrotation Xrotation
									End Site
									{
										OFFSET 0.51565 -0.00000 0.51565
									}
								}
							}
						}
					}
				}
				JOINT RightShoulder
				{
					OFFSET 0 0 0
					CHANNELS 3 Zrotation Yrotation Xrotation
					JOINT RightArm
					{
						OFFSET -3.06467 1.61290 -0.28813
						CHANNELS 3 Zrotation Yrotation Xrotation
						JOINT RightForeArm
						{
							OFFSET -5.23200 -0.00000 -0.00000
							CHANNELS 3 Zrotation Yrotation Xrotation
							JOINT RightHand
							{
								OFFSET -3.65641 -0.00000 0.00000
								CHANNELS 3 Zrotation Yrotation Xrotation
								JOINT RightFingerBase
								{
									OFFSET 0 0 0
									CHANNELS 3 Zrotation Yrotation Xrotation
									JOINT RightHandIndex1
									{
										OFFSET -0.65681 -0.00000 0.00000
										CHANNELS 3 Zrotation Yrotation Xrotation
										End Site
										{
											OFFSET -0.52953 -0.00000 0.00000
										}
									}
								}
								JOINT RThumb
								{
									OFFSET 0 0 0
									CHANNELS 3 Zrotation Yrotation Xrotation
									End Site
									{
										OFFSET -0.53762 -0.00000 0.53762
									}
								}
							}
						}
					}
				}
			}
		}
	}
}
MOTION
Frames: 12
Frame Time: .0083333
1.7991 18.0165 -4.5023 -1.6483 1.1107 -10.0914 0.0000 0.0000 0.0000 8.7546 -13.1173 -100.5244 26.8135 18.8485 110.2962 -1.1837 -19.4683 12.7186 0.1205 -2.2376 -6.1628 0.0000 0.0000 0.0000 26.5808 -6.6621 3.7440 -1.3802 -7.4339 21.0074 -0.4239 4.8051 -11.5950 -1.2655 -7.1305 20.1027 4.6281 3.0032 14.9143 1.6117 4.8980 0.6294 -1.9098 2.2468 -7.4442 -5.0885 -4.5405 -13.8958 1.3415 -5.4455 23.1837 0.6347 -2.8109 9.8298 -0.0000 -0.0000 0.0000 -64.8650 12.9506 -11.1851 49.8557 -52.9371 -26.0589 -0.0000 -0.0000 3.3987 20.8095 3.7919 1.4398 -7.1250 0.0000 -0.0000 -4.7784 34.0062 1.2925 -0.0000 -0.0000 0.0000 60.7969 -11.4611 8.0053 -30.5347 41.3473 -11.7613 0.0000 0.0000 3.8761 -11.3582 -9.6338 1.9254 7.1250 -0.0000 -0.0000 13.5561 -39.4461 1.8960
1.8161 18.0079 -4.5065 -1.7910 0.7116 -9.9454 0.0000 0.0000 0.0000 8.5320 -13.8199 -100.2938 27.0026 18.7812 110.8825 -1.2242 -19.8662 13.3154 0.1222 -2.2533 -6.2062 0.0000 0.0000 0.0000 26.7440 -6.4591 3.5723 -1.3938 -7.4690 21.1125 -0.4239 4.9640 -11.6031 -1.2864 -7.1870 20.2705 5.0647 3.1473 14.9273 1.6971 5.1771 0.4941 -2.1230 2.3625 -7.5514 -5.1290 -4.5736 -13.7844 1.2462 -5.4655 23.2883 0.6073 -2.8353 9.8454 0.0000 0.0000 0.0000 -65.1220 13.5277 -11.8147 49.5826 -52.8257 -25.8412 -0.0000 -0.0000 3.3462 20.6269 3.7158 1.3974 -7.1250 0.0000 -0.0000 -4.9215 33.9187 1.3419 0.0000 0.0000 0.0000 60.7265 -11.2011 8.2425 -30.7319 41.5125 -11.8918 0.0000 0.0000 3.8487 -11.5148 -9.4770 1.9211 7.1250 -0.0000 -0.0000 13.3881 -39.3030 1.9197
1.8316 17.9984 -4.5115 -1.9234 0.3397 -9.7834 0.0000 0.0000 0.0000 8.2991 -14.5065 -99.9358 27.1875 18.7134 111.4578 -1.2628 -20.2627 13.9585 0.1205 -2.2382 -6.1645 0.0000 0.0000 0.0000 26.8929 -6.2755 3.3470 -1.4144 -7.5217 21.2703 -0.4256 5.1525 -11.6372 -1.3074 -7.2432 20.4378 5.4687 3.2820 14.9400 1.7747 5.4389 0.3506 -2.3228 2.4694 -7.6678 -5.1625 -4.6031 -13.6889 1.1513 -5.4814 23.4044 0.5790 -2.8570 9.8679 -0.0000 -0.0000 0.0000 -65.3759 14.0718 -12.4405 49.3215 -52.7182 -25.6333 -0.0000 -0.0000 3.2800 20.4499 3.6550 1.3617 -7.1250 0.0000 -0.0000 -5.0612 33.8476 1.3890 -0.0000 -0.0000 0.0000 60.6602 -10.9737 8.4545 -30.9356 41.6819 -12.0270 0.0000 0.0000 3.8063 -11.6896 -9.3211 1.9193 7.1250 -0.0000 -0.0000 13.2055 -39.1620 1.9392
1.8453 17.9885 -4.5173 -2.0428 0.0041 -9.6048 0.0000 0.0000 0.0000 8.0533 -15.1801 -99.4538 27.3656 18.6462 112.0138 -1.2972 -20.6432 14.6361 0.1146 -2.1823 -6.0096 0.0000 0.0000 0.0000 27.0216 -6.1180 3.0662 -1.4416 -7.5905 21.4771 -0.4283 5.3739 -11.6907 -1.3283 -7.2986 20.6029 5.8380 3.4040 14.9472 1.8418 5.6783 0.2010 -2.5097 2.5652 -7.7893 -5.1869 -4.6291 -13.6130 1.0566 -5.4937 23.5320 0.5491 -2.8763 9.8978 0.0000 -0.0000 0.0000 -65.6233 14.5784 -13.0616 49.0733 -52.6148 -25.4359 -0.0000 -0.0000 3.2091 20.2872 3.6168 1.3358 -7.1250 0.0000 -0.0000 -5.1908 33.8012 1.4307 0.0000 -0.0000 0.0000 60.6027 -10.7799 8.6368 -31.1452 41.8550 -12.1666 0.0000 0.0000 3.7549 -11.8827 -9.1683 1.9202 7.1250 -0.0000 -0.0000 13.0088 -39.0251 1.9539
1.8572 17.9783 -4.5236 -2.1465 -0.2873 -9.4068 0.0000 0.0000 0.0000 7.7928 -15.8432 -98.8546 27.5355 18.5802 112.5464 -1.3252 -20.9926 15.3292 0.1040 -2.0800 -5.7268 0.0000 0.0000 0.0000 27.1248 -5.9923 2.7256 -1.4750 -7.6743 21.7290 -0.4315 5.6321 -11.7557 -1.3489 -7.3526 20.7643 6.1713 3.5114 14.9384 1.8959 5.8908 0.0468 -2.6836 2.6484 -7.9090 -5.2000 -4.6516 -13.5579 0.9614 -5.5025 23.6680 0.5170 -2.8929 9.9341 0.0000 -0.0000 0.0000 -65.8626 15.0430 -13.6758 48.8406 -52.5171 -25.2512 -0.0000 -0.0000 3.1423 20.1468 3.6060 1.3218 -7.1250 0.0000 -0.0000 -5.3045 33.7849 1.4643 0.0000 -0.0000 0.0000 60.5581 -10.6205 8.7854 -31.3604 42.0313 -12.3104 0.0000 0.0000 3.6998 -12.0950 -9.0220 1.9246 7.1250 -0.0000 -0.0000 12.7981 -38.8956 1.9625
1.8671 17.9683 -4.5304 -2.2345 -0.5302 -9.1854 0.0000 0.0000 0.0000 7.5196 -16.4932 -98.1469 27.6968 18.5159 113.0535 -1.3449 -21.2980 16.0140 0.0896 -1.9305 -5.3138 0.0000 0.0000 0.0000 27.2014 -5.9011 2.3210 -1.5145 -7.7716 22.0226 -0.4343 5.9286 -11.8244 -1.3688 -7.4044 20.9191 6.4693 3.6027 14.9027 1.9367 6.0736 -0.1105 -2.8442 2.7179 -8.0199 -5.2004 -4.6701 -13.5219 0.8650 -5.5072 23.8072 0.4824 -2.9066 9.9747 0.0000 -0.0000 0.0000 -66.0947 15.4623 -14.2803 48.6269 -52.4265 -25.0817 -0.0000 -0.0000 3.0853 20.0382 3.6278 1.3220 -7.1250 0.0000 -0.0000 -5.3950 33.8041 1.4870 0.0000 -0.0000 0.0000 60.5287 -10.4962 8.8978 -31.5805 42.2102 -12.4581 0.0000 0.0000 3.6451 -12.3282 -8.8842 1.9331 7.1250 -0.0000 -0.0000 12.5720 -38.7758 1.9643
1.8752 17.9585 -4.5374 -2.3081 -0.7242 -8.9381 0.0000 0.0000 0.0000 7.2369 -17.1238 -97.3400 27.8485 18.4539 113.5319 -1.3558 -21.5489 16.6612 0.0729 -1.7415 -4.7917 0.0000 0.0000 0.0000 27.2525 -5.8440 1.8512 -1.5596 -7.8811 22.3536 -0.4361 6.2622 -11.8905 -1.3875 -7.4528 21.0639 6.7331 3.6780 14.8293 1.9652 6.2255 -0.2688 -2.9896 2.7738 -8.1144 -5.1881 -4.6835 -13.5027 0.7675 -5.5065 23.9434 0.4455 -2.9167 10.0167 -0.0000 0.0000 0.0000 -66.3232 15.8337 -14.8713 48.4374 -52.3455 -24.9316 -0.0000 -0.0000 3.0377 19.9687 3.6847 1.3377 -7.1250 0.0000 -0.0000 -5.4566 33.8619 1.4964 -0.0000 0.0000 0.0000 60.5146 -10.4079 8.9724 -31.8038 42.3902 -12.6083 0.0000 0.0000 3.5936 -12.5850 -8.7566 1.9466 7.1250 -0.0000 -0.0000 12.3287 -38.6674 1.9583
1.8813 17.9492 -4.5442 -2.3690 -0.8721 -8.6648 0.0000 0.0000 0.0000 6.9470 -17.7247 -96.4396 27.9908 18.3946 113.9819 -1.3582 -21.7382 17.2364 0.0561 -1.5278 -4.2025 0.0000 0.0000 0.0000 27.2811 -5.8189 1.3209 -1.6097 -8.0007 22.7163 -0.4365 6.6288 -11.9505 -1.4045 -7.4964 21.1946 6.9631 3.7383 14.7111 1.9835 6.3467 -0.4254 -3.1169 2.8168 -8.1859 -5.1649 -4.6909 -13.4977 0.6697 -5.4989 24.0705 0.4073 -2.9226 10.0577 0.0000 -0.0000 0.0000 -66.5526 16.1550 -15.4445 48.2770 -52.2765 -24.8047 -0.0000 -0.0000 2.9931 19.9454 3.7789 1.3701 -7.1250 0.0000 -0.0000 -5.4839 33.9607 1.4908 0.0000 -0.0000 0.0000 60.5145 -10.3546 9.0092 -32.0273 42.5690 -12.7593 0.0000 0.0000 3.5466 -12.8679 -8.6397 1.9654 7.1250 -0.0000 -0.0000 12.0661 -38.5710 1.9442
1.8855 17.9403 -4.5505 -2.4194 -0.9793 -8.3690 0.0000 0.0000 0.0000 6.6519 -18.2814 -95.4484 28.1242 18.3376 114.4054 -1.3535 -21.8621 17.7069 0.0412 -1.3102 -3.6029 0.0000 0.0000 0.0000 27.2924 -5.8216 0.7408 -1.6640 -8.1281 23.1039 -0.4354 7.0211 -12.0035 -1.4191 -7.5336 21.3063 7.1594 3.7850 14.5461 1.9952 6.4387 -0.5772 -3.2225 2.8482 -8.2306 -5.1335 -4.6912 -13.5049 0.5738 -5.4828 24.1832 0.3694 -2.9236 10.0953 -0.0000 -0.0000 0.0000 -66.7877 16.4246 -15.9952 48.1499 -52.2215 -24.7042 -0.0000 -0.0000 2.9413 19.9706 3.9083 1.4188 -7.1250 0.0000 -0.0000 -5.4747 34.0985 1.4699 -0.0000 -0.0000 0.0000 60.5253 -10.3357 9.0093 -32.2473 42.7435 -12.9084 0.0000 0.0000 3.5039 -13.1785 -8.5331 1.9899 7.1250 -0.0000 -0.0000 11.7825 -38.4866 1.9218
1.8877 17.9320 -4.5559 -2.4610 -1.0516 -8.0573 0.0000 0.0000 0.0000 6.3518 -18.7799 -94.3646 28.2490 18.2834 114.8027 -1.3435 -21.9182 18.0440 0.0296 -1.1115 -3.0556 0.0000 0.0000 0.0000 27.2914 -5.8481 0.1265 -1.7216 -8.2603 23.5076 -0.4328 7.4293 -12.0516 -1.4308 -7.5635 21.3958 7.3203 3.8192 14.3372 2.0037 6.5028 -0.7209 -3.3021 2.8690 -8.2471 -5.0974 -4.6835 -13.5238 0.4826 -5.4568 24.2787 0.3334 -2.9190 10.1287 -0.0000 0.0000 0.0000 -67.0321 16.6412 -16.5193 48.0587 -52.1819 -24.6321 -0.0000 -0.0000 2.8713 20.0425 4.0687 1.4827 -7.1250 0.0000 -0.0000 -5.4302 34.2711 1.4350 -0.0000 0.0000 0.0000 60.5438 -10.3493 8.9750 -32.4587 42.9098 -13.0521 0.0000 0.0000 3.4648 -13.5185 -8.4352 2.0198 7.1250 -0.0000 -0.0000 11.4764 -38.4125 1.8915
1.8877 17.9243 -4.5602 -2.4922 -1.0920 -7.7366 0.0000 0.0000 0.0000 6.0433 -19.2093 -93.1854 28.3636 18.2327 115.1684 -1.3298 -21.9048 18.2267 0.0218 -0.9530 -2.6195 0.0000 0.0000 0.0000 27.2796 -5.8944 -0.5055 -1.7809 -8.3939 23.9170 -0.4291 7.8421 -12.0976 -1.4396 -7.5855 21.4621 7.4405 3.8416 14.0902 2.0111 6.5395 -0.8541 -3.3512 2.8800 -8.2371 -5.0596 -4.6672 -13.5538 0.3993 -5.4203 24.3558 0.3012 -2.9084 10.1575 -0.0000 -0.0000 0.0000 -67.2869 16.8045 -17.0125 48.0041 -52.1581 -24.5890 -0.0000 -0.0000 2.7752 20.1536 4.2511 1.5584 -7.1250 0.0000 -0.0000 -5.3554 34.4687 1.3893 -0.0000 -0.0000 0.0000 60.5676 -10.3942 8.9092 -32.6568 43.0646 -13.1872 0.0000 0.0000 3.4280 -13.8866 -8.3441 2.0547 7.1250 -0.0000 -0.0000 11.1481 -38.3470 1.8540
1.8852 17.9172 -4.5634 -2.5119 -1.1018 -7.4135 0.0000 0.0000 0.0000 5.7245 -19.5615 -91.9084 28.4661 18.1866 115.4964 -1.3130 -21.8196 18.2473 0.0172 -0.8471 -2.3282 0.0000 0.0000 0.0000 27.2597 -5.9565 -1.1394 -1.8404 -8.5255 24.3219 -0.4249 8.2470 -12.1457 -1.4456 -7.6008 21.5080 7.5150 3.8521 13.8134 2.0189 6.5484 -0.9763 -3.3665 2.8811 -8.2054 -5.0219 -4.6422 -13.5948 0.3268 -5.3734 24.4160 0.2741 -2.8917 10.1824 -0.0000 -0.0000 0.0000 -67.5497 16.9153 -17.4696 47.9846 -52.1496 -24.5735 -0.0000 -0.0000 2.6502 20.2935 4.4464 1.6421 -7.1250 0.0000 -0.0000 -5.2582 34.6815 1.3367 -0.0000 -0.0000 0.0000 60.5960 -10.4706 8.8147 -32.8376 43.2048 -13.3107 0.0000 0.0000 3.3922 -14.2802 -8.2573 2.0935 7.1250 -0.0000 -0.0000 10.7994 -38.2870 1.8105
